<svg width="129" height="21" viewBox="0 0 129 21" fill="none" xmlns="http://www.w3.org/2000/svg">
<path d="M3.44238 14.1859C3.44238 17.3058 5.93142 19.7949 9.05136 19.7949H11.2949C14.3799 19.7949 16.9039 17.3058 16.9039 14.1859V9.69872H3.44238V14.1859ZM9.61225 1.84616H9.05136C5.93142 1.84616 3.44238 4.3702 3.44238 7.45513V8.57693H9.61225V1.84616ZM11.2949 1.84616H10.734V8.57693H16.9039V7.45513C16.9039 4.3702 14.3799 1.84616 11.2949 1.84616Z" fill="black"/>
<path d="M24.1953 15.3077V4.11885H25.8835V9.46202H26.02L30.713 4.11885H32.8382L28.3256 9.15606L32.8546 15.3077H30.8222L27.2056 10.3088L25.8835 11.8276V15.3077H24.1953ZM37.2813 15.477C36.4544 15.477 35.7424 15.3004 35.1451 14.9471C34.5515 14.5902 34.0925 14.0894 33.7684 13.4447C33.4478 12.7964 33.2876 12.037 33.2876 11.1665C33.2876 10.3069 33.4478 9.54943 33.7684 8.89375C34.0925 8.23818 34.5442 7.72645 35.1233 7.35866C35.706 6.99077 36.387 6.80683 37.1666 6.80683C37.64 6.80683 38.099 6.8851 38.5433 7.04173C38.9876 7.19837 39.3865 7.44423 39.7397 7.77933C40.093 8.11433 40.3717 8.54962 40.5756 9.085C40.7795 9.61673 40.8816 10.2633 40.8816 11.0245V11.6036H34.2109V10.3798H39.2808C39.2808 9.95 39.1934 9.56943 39.0186 9.23798C38.8438 8.90289 38.5979 8.63885 38.281 8.44577C37.9678 8.25279 37.5999 8.15625 37.1774 8.15625C36.7185 8.15625 36.3179 8.26914 35.9755 8.495C35.6368 8.71712 35.3745 9.00856 35.1888 9.36914C35.0067 9.72606 34.9156 10.1139 34.9156 10.5328V11.4888C34.9156 12.0497 35.014 12.5269 35.2107 12.9202C35.411 13.3136 35.6896 13.614 36.0466 13.8216C36.4035 14.0257 36.8205 14.1276 37.2976 14.1276C37.6072 14.1276 37.8894 14.0839 38.1444 13.9965C38.3994 13.9055 38.6197 13.7707 38.8055 13.5922C38.9913 13.4138 39.1333 13.1934 39.2317 12.9312L40.7777 13.2098C40.6539 13.6651 40.4318 14.0638 40.1113 14.4063C39.7944 14.745 39.3955 15.009 38.9147 15.1985C38.4376 15.3841 37.8931 15.477 37.2813 15.477ZM46.3107 15.477C45.4839 15.477 44.7719 15.3004 44.1745 14.9471C43.5809 14.5902 43.1219 14.0894 42.7978 13.4447C42.4773 12.7964 42.317 12.037 42.317 11.1665C42.317 10.3069 42.4773 9.54943 42.7978 8.89375C43.1219 8.23818 43.5736 7.72645 44.1527 7.35866C44.7354 6.99077 45.4166 6.80683 46.196 6.80683C46.6694 6.80683 47.1284 6.8851 47.5727 7.04173C48.017 7.19837 48.4159 7.44423 48.7692 7.77933C49.1224 8.11433 49.4011 8.54962 49.605 9.085C49.8091 9.61673 49.911 10.2633 49.911 11.0245V11.6036H43.2403V10.3798H48.3102C48.3102 9.95 48.2228 9.56943 48.048 9.23798C47.8732 8.90289 47.6273 8.63885 47.3105 8.44577C46.9972 8.25279 46.6294 8.15625 46.2069 8.15625C45.748 8.15625 45.3473 8.26914 45.0049 8.495C44.6663 8.71712 44.404 9.00856 44.2183 9.36914C44.0362 9.72606 43.9451 10.1139 43.9451 10.5328V11.4888C43.9451 12.0497 44.0434 12.5269 44.2401 12.9202C44.4404 13.3136 44.7191 13.614 45.076 13.8216C45.4329 14.0257 45.8499 14.1276 46.327 14.1276C46.6367 14.1276 46.919 14.0839 47.1739 13.9965C47.4289 13.9055 47.6492 13.7707 47.8349 13.5922C48.0207 13.4138 48.1627 13.1934 48.2611 12.9312L49.8072 13.2098C49.6834 13.6651 49.4612 14.0638 49.1407 14.4063C48.8238 14.745 48.425 15.009 47.9443 15.1985C47.467 15.3841 46.9226 15.477 46.3107 15.477ZM51.7235 18.4545V6.91606H53.3187V8.27645H53.4553C53.55 8.10164 53.6866 7.89952 53.865 7.67C54.0435 7.44058 54.2912 7.2402 54.6081 7.06904C54.9249 6.89423 55.3438 6.80683 55.8646 6.80683C56.542 6.80683 57.1467 6.97798 57.6784 7.32039C58.2102 7.66269 58.6272 8.15625 58.9295 8.80096C59.2355 9.44558 59.3884 10.2213 59.3884 11.1283C59.3884 12.0352 59.2373 12.8128 58.935 13.4611C58.6327 14.1058 58.2174 14.6029 57.6894 14.9526C57.1613 15.2986 56.5585 15.4716 55.881 15.4716C55.3711 15.4716 54.9541 15.386 54.6299 15.2148C54.3094 15.0437 54.0581 14.8433 53.876 14.6139C53.6939 14.3844 53.5537 14.1805 53.4553 14.0019H53.3569V18.4545H51.7235ZM53.3242 11.1119C53.3242 11.7019 53.4097 12.2191 53.581 12.6635C53.7521 13.1078 53.9998 13.4557 54.324 13.7069C54.6481 13.9546 55.0451 14.0785 55.5149 14.0785C56.003 14.0785 56.411 13.9491 56.7388 13.6906C57.0666 13.4284 57.3143 13.0732 57.4818 12.6252C57.6529 12.1772 57.7385 11.6728 57.7385 11.1119C57.7385 10.5583 57.6547 10.0612 57.4872 9.62039C57.3233 9.17971 57.0756 8.83193 56.7442 8.57693C56.4164 8.32193 56.0067 8.19452 55.5149 8.19452C55.0415 8.19452 54.6408 8.31654 54.313 8.56058C53.9889 8.80452 53.743 9.1451 53.5755 9.58221C53.408 10.0192 53.3242 10.5291 53.3242 11.1119ZM71.5784 8.96481L70.0978 9.22702C70.0359 9.0377 69.9376 8.85741 69.8028 8.68616C69.6718 8.515 69.4932 8.37481 69.2674 8.26548C69.0416 8.15625 68.7594 8.10164 68.4206 8.10164C67.9581 8.10164 67.5719 8.20539 67.2624 8.41298C66.9528 8.61702 66.798 8.88106 66.798 9.2052C66.798 9.48568 66.9018 9.71145 67.1094 9.8827C67.317 10.0538 67.6521 10.194 68.1146 10.3034L69.4477 10.6092C70.2198 10.7877 70.7953 11.0627 71.1742 11.4342C71.5529 11.8058 71.7423 12.2883 71.7423 12.882C71.7423 13.3846 71.5966 13.8326 71.3052 14.226C71.0175 14.6157 70.615 14.9216 70.0978 15.1438C69.5843 15.366 68.9888 15.477 68.3114 15.477C67.3717 15.477 66.605 15.2767 66.0113 14.8761C65.4176 14.4718 65.0534 13.8982 64.9187 13.1552L66.4975 12.9148C66.5959 13.3263 66.798 13.6378 67.104 13.849C67.4099 14.0566 67.8088 14.1604 68.3004 14.1604C68.8358 14.1604 69.2638 14.0493 69.5843 13.8271C69.9048 13.6013 70.065 13.3264 70.065 13.0022C70.065 12.7399 69.9668 12.5196 69.77 12.3412C69.577 12.1627 69.2802 12.0279 68.8795 11.9368L67.4591 11.6255C66.676 11.4469 66.0968 11.1629 65.7218 10.7732C65.3502 10.3835 65.1645 9.88991 65.1645 9.2926C65.1645 8.79731 65.3029 8.36385 65.5797 7.99231C65.8565 7.62087 66.239 7.33125 66.727 7.12366C67.215 6.91241 67.7742 6.80683 68.4043 6.80683C69.3112 6.80683 70.025 7.00346 70.5458 7.39683C71.0667 7.78654 71.4109 8.30923 71.5784 8.96481ZM77.0731 15.477C76.2609 15.477 75.5616 15.2931 74.9752 14.9253C74.3924 14.5538 73.9444 14.042 73.6312 13.3901C73.318 12.7382 73.1614 11.9914 73.1614 11.1501C73.1614 10.2979 73.3217 9.54577 73.6421 8.89375C73.9626 8.23818 74.4143 7.72645 74.997 7.35866C75.5798 6.99077 76.2664 6.80683 77.0567 6.80683C77.6941 6.80683 78.2622 6.9252 78.7613 7.16193C79.2602 7.395 79.6627 7.72279 79.9687 8.14529C80.2782 8.56779 80.4621 9.06135 80.5204 9.62587H78.9306C78.8432 9.2325 78.6429 8.89375 78.3296 8.60971C78.02 8.32558 77.6048 8.18356 77.0841 8.18356C76.6288 8.18356 76.2299 8.30375 75.8875 8.54414C75.5489 8.78087 75.2847 9.11962 75.0954 9.56029C74.906 9.99741 74.8113 10.5146 74.8113 11.1119C74.8113 11.7238 74.9042 12.2519 75.0899 12.6963C75.2757 13.1406 75.5379 13.4848 75.8767 13.7288C76.219 13.9728 76.6215 14.0948 77.0841 14.0948C77.3936 14.0948 77.6741 14.0384 77.9254 13.9255C78.1803 13.8089 78.3934 13.6432 78.5645 13.4284C78.7393 13.2135 78.8614 12.9548 78.9306 12.6525H80.5204C80.4621 13.1952 80.2855 13.6796 79.9905 14.1058C79.6955 14.5319 79.3003 14.867 78.8049 15.1111C78.3133 15.355 77.736 15.477 77.0731 15.477ZM82.2673 15.3077V6.91606H83.8462V8.24914H83.9336C84.0866 7.7975 84.3561 7.44241 84.7421 7.18375C85.1319 6.92154 85.5726 6.79039 86.0643 6.79039C86.1663 6.79039 86.2865 6.79404 86.4248 6.80135C86.5669 6.80866 86.678 6.81779 86.7581 6.82866V8.39116C86.6926 8.37298 86.576 8.35289 86.4085 8.33106C86.241 8.30558 86.0734 8.29279 85.9059 8.29279C85.5198 8.29279 85.1756 8.37481 84.8733 8.53866C84.5746 8.69895 84.3379 8.92289 84.1631 9.21068C83.9883 9.49471 83.9008 9.81895 83.9008 10.1832V15.3077H82.2673ZM91.406 15.477C90.6194 15.477 89.9327 15.2967 89.3464 14.9362C88.76 14.5756 88.3047 14.0712 87.9805 13.4229C87.6564 12.7745 87.4944 12.017 87.4944 11.1501C87.4944 10.2796 87.6564 9.51846 87.9805 8.86645C88.3047 8.21452 88.76 7.70827 89.3464 7.3477C89.9327 6.98712 90.6194 6.80683 91.406 6.80683C92.1923 6.80683 92.8789 6.98712 93.4654 7.3477C94.0519 7.70827 94.5077 8.21452 94.8318 8.86645C95.1558 9.51846 95.3173 10.2796 95.3173 11.1501C95.3173 12.017 95.1558 12.7745 94.8318 13.4229C94.5077 14.0712 94.0519 14.5756 93.4654 14.9362C92.8789 15.2967 92.1923 15.477 91.406 15.477ZM91.4115 14.1058C91.9212 14.1058 92.3443 13.971 92.6789 13.7014C93.0144 13.4319 93.2616 13.0732 93.4221 12.6252C93.5856 12.1772 93.6683 11.6838 93.6683 11.1447C93.6683 10.6092 93.5856 10.1176 93.4221 9.66962C93.2616 9.21798 93.0144 8.85558 92.6789 8.58241C92.3443 8.30923 91.9212 8.1726 91.4115 8.1726C90.8979 8.1726 90.4719 8.30923 90.1331 8.58241C89.798 8.85558 89.5485 9.21798 89.3846 9.66962C89.2243 10.1176 89.1443 10.6092 89.1443 11.1447C89.1443 11.6838 89.2243 12.1772 89.3846 12.6252C89.5485 13.0732 89.798 13.4319 90.1331 13.7014C90.4719 13.971 90.8979 14.1058 91.4115 14.1058ZM98.775 4.11885V15.3077H97.1414V4.11885H98.775ZM102.606 4.11885V15.3077H100.972V4.11885H102.606ZM104.803 15.3077V6.91606H106.437V15.3077H104.803ZM105.628 5.62125C105.344 5.62125 105.1 5.52664 104.896 5.33721C104.696 5.14414 104.596 4.91472 104.596 4.64885C104.596 4.37933 104.696 4.14981 104.896 3.96048C105.1 3.76741 105.344 3.67087 105.628 3.67087C105.913 3.67087 106.155 3.76741 106.355 3.96048C106.559 4.14981 106.661 4.37933 106.661 4.64885C106.661 4.91472 106.559 5.14414 106.355 5.33721C106.155 5.52664 105.913 5.62125 105.628 5.62125ZM110.268 10.3252V15.3077H108.635V6.91606H110.203V8.28193H110.306C110.499 7.8376 110.802 7.48058 111.213 7.21106C111.628 6.94154 112.151 6.80683 112.781 6.80683C113.353 6.80683 113.854 6.92702 114.284 7.16741C114.713 7.40414 115.046 7.75741 115.284 8.22731C115.52 8.69712 115.638 9.27808 115.638 9.9701V15.3077H114.005V10.1667C114.005 9.55847 113.846 9.08318 113.53 8.74087C113.213 8.39481 112.778 8.22183 112.224 8.22183C111.845 8.22183 111.508 8.30375 111.213 8.4677C110.922 8.63154 110.69 8.87193 110.519 9.18885C110.352 9.50202 110.268 9.88087 110.268 10.3252ZM121.347 18.6293C120.681 18.6293 120.108 18.5419 119.627 18.3671C119.149 18.1923 118.76 17.9611 118.458 17.6733C118.155 17.3856 117.93 17.0705 117.78 16.7282L119.184 16.149C119.283 16.3093 119.413 16.4787 119.578 16.6571C119.745 16.8392 119.971 16.994 120.255 17.1215C120.542 17.2489 120.913 17.3127 121.363 17.3127C121.983 17.3127 122.495 17.1615 122.899 16.8592C123.304 16.5606 123.506 16.0835 123.506 15.4279V13.778H123.402C123.304 13.9564 123.162 14.1549 122.976 14.3735C122.793 14.592 122.542 14.7814 122.222 14.9416C121.901 15.1019 121.484 15.182 120.97 15.182C120.308 15.182 119.711 15.0272 119.179 14.7177C118.651 14.4044 118.232 13.9437 117.922 13.3355C117.616 12.7236 117.463 11.9714 117.463 11.0791C117.463 10.1867 117.614 9.42193 117.916 8.78452C118.222 8.14712 118.641 7.65914 119.173 7.32039C119.705 6.97798 120.308 6.80683 120.982 6.80683C121.502 6.80683 121.923 6.89423 122.243 7.06904C122.564 7.2402 122.813 7.44058 122.992 7.67C123.174 7.89952 123.314 8.10164 123.413 8.27645H123.533V6.91606H125.134V15.4935C125.134 16.2146 124.966 16.8064 124.631 17.269C124.296 17.7315 123.842 18.0739 123.27 18.2962C122.703 18.5183 122.062 18.6293 121.347 18.6293ZM121.331 13.8271C121.801 13.8271 122.198 13.7179 122.522 13.4993C122.85 13.2772 123.098 12.9603 123.265 12.5488C123.437 12.1336 123.522 11.6363 123.522 11.0572C123.522 10.4927 123.438 9.99558 123.27 9.56577C123.103 9.13597 122.858 8.80096 122.533 8.56058C122.209 8.31654 121.809 8.19452 121.331 8.19452C120.839 8.19452 120.43 8.32193 120.102 8.57693C119.774 8.82827 119.527 9.17058 119.359 9.60404C119.195 10.0374 119.113 10.5218 119.113 11.0572C119.113 11.6072 119.197 12.0898 119.364 12.505C119.532 12.9202 119.78 13.2444 120.108 13.4775C120.438 13.7106 120.847 13.8271 121.331 13.8271Z" fill="black"/>
</svg>
