<svg width="500" height="500" viewBox="0 0 500 500" fill="none" xmlns="http://www.w3.org/2000/svg">
<rect width="500" height="500" fill="black"/>
<path d="M350.234 337C345.634 343.8 341.034 348.7 336.434 351.7C331.834 354.7 325.734 356.2 318.134 356.2C309.934 356.2 303.134 353.8 297.734 349C292.534 344.2 288.634 335.8 286.034 323.8L279.434 293.8C277.034 283.4 274.734 275.4 272.534 269.8C270.534 264.2 267.434 259.7 263.234 256.3C259.034 252.9 253.134 251.2 245.534 251.2H217.034V320.2C217.034 327.8 217.634 333.3 218.834 336.7C220.034 340.1 222.234 342.4 225.434 343.6C228.834 344.8 234.134 345.6 241.334 346V352C232.134 351.4 219.434 351.1 203.234 351.1C186.034 351.1 173.234 351.4 164.834 352V346C172.034 345.6 177.234 344.8 180.434 343.6C183.834 342.4 186.134 340.1 187.334 336.7C188.534 333.3 189.134 327.8 189.134 320.2V171.4C189.134 163.8 188.534 158.3 187.334 154.9C186.134 151.5 183.834 149.2 180.434 148C177.234 146.8 172.034 146 164.834 145.6V139.6C173.234 140.2 185.434 140.5 201.434 140.5L233.834 140.2C237.634 140 241.934 139.9 246.734 139.9C269.934 139.9 287.734 144.8 300.134 154.6C312.734 164.2 319.034 176.7 319.034 192.1C319.034 199.9 317.134 207.8 313.334 215.8C309.734 223.6 303.534 230.7 294.734 237.1C286.134 243.3 274.834 247.5 260.834 249.7L264.434 250.3C277.634 252.5 287.234 256.5 293.234 262.3C299.234 268.1 303.634 277.3 306.434 289.9L313.934 320.5C315.934 329.7 318.034 336.1 320.234 339.7C322.434 343.3 325.434 345.1 329.234 345.1C332.634 345.1 335.434 344.2 337.634 342.4C340.034 340.6 342.734 337.7 345.734 333.7L350.234 337ZM239.234 145.6C233.034 145.6 228.334 146.3 225.134 147.7C222.134 149.1 220.034 151.6 218.834 155.2C217.634 158.8 217.034 164.2 217.034 171.4V245.2H237.134C256.934 245.2 270.534 240.8 277.934 232C285.334 223.2 289.034 211 289.034 195.4C289.034 179 285.134 166.6 277.334 158.2C269.534 149.8 256.834 145.6 239.234 145.6Z" fill="white"/>
</svg>
